<?xml version="1.0" standalone="no"?><!DOCTYPE svg PUBLIC "-//W3C//DTD SVG 1.1//EN" "http://www.w3.org/Graphics/SVG/1.1/DTD/svg11.dtd"><svg t="1620983374582" class="icon" viewBox="0 0 1024 1024" version="1.1" xmlns="http://www.w3.org/2000/svg" p-id="4200" xmlns:xlink="http://www.w3.org/1999/xlink" width="200" height="200"><defs><style type="text/css"></style></defs><path d="M957.44 670.72c-5.12-15.36-15.36-25.6-25.6-25.6-25.6 0-46.08-20.48-46.08-46.08 0-5.12 5.12-15.36 5.12-15.36 5.12-15.36 0-30.72-10.24-40.96L829.44 512c-15.36-5.12-25.6 0-35.84 5.12-5.12 5.12-25.6 20.48-35.84 20.48-10.24 0-30.72-15.36-35.84-20.48-10.24-10.24-25.6-15.36-35.84-10.24l-51.2 30.72c-10.24 10.24-15.36 25.6-10.24 40.96 0 5.12 5.12 10.24 5.12 15.36 0 25.6-20.48 46.08-46.08 46.08-10.24 0-20.48 10.24-25.6 25.6 0 0-5.12 25.6-5.12 40.96s5.12 40.96 5.12 40.96c5.12 15.36 15.36 25.6 25.6 25.6 25.6 0 46.08 20.48 46.08 46.08 0 5.12 0 10.24-5.12 15.36-5.12 15.36 0 30.72 10.24 40.96l51.2 30.72c15.36 5.12 30.72 0 35.84-10.24 5.12-5.12 25.6-20.48 35.84-20.48 10.24 0 30.72 15.36 35.84 20.48 10.24 10.24 25.6 15.36 40.96 5.12l51.2-30.72c10.24-10.24 15.36-25.6 10.24-40.96 0-5.12-5.12-10.24-5.12-15.36 0-25.6 20.48-46.08 46.08-46.08 10.24 0 20.48-10.24 25.6-25.6 0 0 5.12-20.48 5.12-40.96-5.12-10.24-10.24-30.72-10.24-30.72zM747.52 788.48c-40.96 0-76.8-35.84-76.8-76.8s30.72-76.8 76.8-76.8c40.96 0 76.8 35.84 76.8 76.8s-35.84 76.8-76.8 76.8zM614.4 481.28C542.72 517.12 491.52 588.8 476.16 665.6c-15.36 76.8 5.12 158.72 56.32 220.16H138.24c-40.96 0-76.8-25.6-76.8-66.56v-20.48c0-35.84 30.72-71.68 66.56-87.04l153.6-66.56s40.96-10.24 51.2-25.6c10.24-10.24 10.24-35.84 0-56.32-10.24-20.48-87.04-117.76-87.04-204.8 0-138.24 92.16-245.76 204.8-245.76s204.8 112.64 204.8 245.76c0 46.08-20.48 87.04-40.96 122.88z m0 0" fill="" p-id="4201"></path></svg>