<?xml version="1.0" standalone="no"?><!DOCTYPE svg PUBLIC "-//W3C//DTD SVG 1.1//EN" "http://www.w3.org/Graphics/SVG/1.1/DTD/svg11.dtd"><svg t="1620984253015" class="icon" viewBox="0 0 1026 1024" version="1.1" xmlns="http://www.w3.org/2000/svg" p-id="8164" xmlns:xlink="http://www.w3.org/1999/xlink" width="200.390625" height="200"><defs><style type="text/css"></style></defs><path d="M194 192h576v64H194v-64zM194 320h576v64H194v-64zM194 448h256v64H194v-64zM706 877.254L555.373 726.627l45.252-45.254L706 786.746l169.371-169.373 45.254 45.254z" fill="" p-id="8165"></path><path d="M2 0v960l320-320h-90L66 805.744V64h768v320h64V0z" fill="" p-id="8166"></path><path d="M738 512c59.832 0 116.082 23.3 158.39 65.607C938.7 619.916 962 676.168 962 736s-23.3 116.084-65.61 158.393C854.083 936.699 797.833 960 738 960s-116.086-23.3-158.393-65.607C537.301 852.084 514 795.832 514 736s23.3-116.084 65.607-158.393C621.914 535.301 678.168 512 738 512m0-64c-159.059 0-288 128.941-288 288s128.941 288 288 288 288-128.941 288-288-128.941-288-288-288z" fill="" p-id="8167"></path></svg>