<?xml version="1.0" standalone="no"?><!DOCTYPE svg PUBLIC "-//W3C//DTD SVG 1.1//EN" "http://www.w3.org/Graphics/SVG/1.1/DTD/svg11.dtd"><svg t="1619429444934" class="icon" viewBox="0 0 1024 1024" version="1.1" xmlns="http://www.w3.org/2000/svg" p-id="19993" xmlns:xlink="http://www.w3.org/1999/xlink" width="200" height="200"><defs><style type="text/css"></style></defs><path d="M422.912 826.368l-200.704 8.192L204.8 452.949333l144.042667-181.589333 198.997333-45.738667 200.704 116.394667 68.608 316.757333-22.869333 175.786667z" fill="#D4EADC" p-id="19994"></path><path d="M962.56 949.248c0 16.725333-13.312 30.037333-30.037333 30.037333H91.477333c-16.725333 0-30.037333-13.312-30.037333-30.037333s13.312-30.037333 30.037333-30.037333h841.045334c16.725333 0 30.037333 13.312 30.037333 30.037333zM505.856 198.314667c-178.858667 0-324.266667 145.408-324.266667 324.266666v306.517334c0 16.725333 13.312 30.037333 30.037334 30.037333h600.746666c16.725333 0 30.037333-13.312 30.037334-30.037333v-294.229334c0-185.685333-150.869333-336.554667-336.554667-336.554666z m276.48 570.709333c0 16.725333-13.312 30.037333-30.037333 30.037333h-330.410667v-270.336c0-16.725333-13.312-30.037333-30.037333-30.037333s-30.037333 13.312-30.037334 30.037333v270.336H271.701333c-16.725333 0-30.037333-13.312-30.037333-30.037333v-246.442667c0-145.749333 118.442667-264.192 264.192-264.192 152.576 0 276.48 123.904 276.48 276.48v234.154667z" fill="#666666" p-id="19995"></path><path d="M512 18.090667c-16.725333 0-30.037333 13.312-30.037333 30.037333v60.074667c0 16.725333 13.312 30.037333 30.037333 30.037333s30.037333-13.312 30.037333-30.037333V48.128c0-16.725333-13.312-30.037333-30.037333-30.037333zM290.474667 144.725333L248.149333 102.4a30.071467 30.071467 0 0 0-42.325333 0c-11.605333 11.605333-11.605333 30.72 0 42.325333l42.325333 42.325334c11.605333 11.605333 30.72 11.605333 42.325334 0 11.605333-11.605333 11.605333-30.72 0-42.325334zM771.072 102.4a30.071467 30.071467 0 0 0-42.325333 0L686.08 144.725333c-11.605333 11.605333-11.605333 30.72 0 42.325334 11.605333 11.605333 30.72 11.605333 42.325333 0l42.325334-42.325334c11.946667-11.605333 11.946667-30.72 0.341333-42.325333z" fill="#32AE1B" p-id="19996"></path></svg>