<?xml version="1.0" standalone="no"?><!DOCTYPE svg PUBLIC "-//W3C//DTD SVG 1.1//EN" "http://www.w3.org/Graphics/SVG/1.1/DTD/svg11.dtd"><svg t="1620983571140" class="icon" viewBox="0 0 1024 1024" version="1.1" xmlns="http://www.w3.org/2000/svg" p-id="3329" xmlns:xlink="http://www.w3.org/1999/xlink" width="200" height="200"><defs><style type="text/css"></style></defs><path d="M150.588235 0h722.82353a60.235294 60.235294 0 0 1 60.235294 60.235294v849.498353a60.235294 60.235294 0 0 1-87.702588 53.609412L512 792.214588l-333.944471 171.068236A60.235294 60.235294 0 0 1 90.352941 909.733647V60.235294a60.235294 60.235294 0 0 1 60.235294-60.235294z m180.705883 180.705882a60.235294 60.235294 0 1 0 0 120.470589h361.411764a60.235294 60.235294 0 1 0 0-120.470589H331.294118z m0 240.941177a60.235294 60.235294 0 1 0 0 120.470588h361.411764a60.235294 60.235294 0 1 0 0-120.470588H331.294118z" p-id="3330"></path></svg>