<?xml version="1.0" standalone="no"?><!DOCTYPE svg PUBLIC "-//W3C//DTD SVG 1.1//EN" "http://www.w3.org/Graphics/SVG/1.1/DTD/svg11.dtd"><svg t="1620984200359" class="icon" viewBox="0 0 1024 1024" version="1.1" xmlns="http://www.w3.org/2000/svg" p-id="7340" xmlns:xlink="http://www.w3.org/1999/xlink" width="200" height="200"><defs><style type="text/css"></style></defs><path d="M299.080693 214.132325h419.170651a37.065887 37.065887 0 0 1 0 74.131773H299.080693a37.065887 37.065887 0 0 1 0-74.131773z m0 169.681483h286.41394a37.065887 37.065887 0 0 1 0 74.131774H299.080693a37.065887 37.065887 0 0 1 0-74.131774z m0 169.681484h362.301796a37.065887 37.065887 0 0 1 0 74.116094H299.080693a37.065887 37.065887 0 0 1 0-74.116094z m260.966422 387.153501a37.065887 37.065887 0 0 1 0 74.131773H220.840941c-76.295518 0-137.444824-64.551716-137.444824-143.214809V150.505688c0.109755-78.631735 61.149306-143.19913 137.476182-143.19913h582.204107c76.342556 0 137.491862 64.567395 137.491862 143.19913v471.288674a36.98749 36.98749 0 1 1-73.974981 0V150.505688c0-38.524063-28.771532-68.98896-63.391446-68.98896H220.840941c-34.49448 0-63.407126 30.433539-63.407126 68.98896v721.24822c0 38.524063 28.771532 68.98896 63.407126 68.988961z m249.896828-124.619149h92.507924a36.062411 36.062411 0 0 1 0 72.124822h-92.507924v92.617679a35.968335 35.968335 0 1 1-71.93667 0v-92.633359h-92.507924a36.062411 36.062411 0 0 1 0-72.124822h92.507924v-92.711755a35.968335 35.968335 0 1 1 71.93667 0v92.727435z" fill="#5C658D" p-id="7341"></path><path d="M773.881532 1024a43.212176 43.212176 0 0 1-43.149458-43.290573v-85.358158h-85.295442a43.259214 43.259214 0 0 1 0-86.502749h85.295442v-85.514952a43.180817 43.180817 0 1 1 86.361634 0v85.514952h85.295442a43.259214 43.259214 0 0 1 0 86.502749h-85.295442v85.358158a43.274893 43.274893 0 0 1-43.212176 43.290573z m-128.4449-200.695157a28.865608 28.865608 0 0 0 0 57.731216h99.62633v99.751765a28.802891 28.802891 0 1 0 57.590103 0v-99.830161h99.689047a28.865608 28.865608 0 0 0 0-57.731216h-99.642009v-99.892879a28.802891 28.802891 0 1 0-57.590103 0v99.892879z m-85.389517 198.656847H220.825261c-79.760646 0-144.688665-67.421029-144.688664-150.380254V150.521368c0.109755-82.943545 65.037774-150.521368 144.688664-150.521368h582.251145c79.807683 0 144.657306 67.499426 144.657306 150.521368v471.272994a44.168614 44.168614 0 1 1-88.211793 0V150.521368c0-34.055459-25.243688-61.760799-56.257361-61.760799H220.825261c-30.982315 0-56.147606 27.705339-56.147606 61.760799v721.24822c0 34.055459 25.165291 61.760799 56.147606 61.760798h339.221854a44.24701 44.24701 0 0 1 0 88.478342zM220.825261 14.53472c-71.71716 0-130.138266 61.008192-130.232341 135.986648v721.060068c0 74.947098 58.405427 135.986648 130.232341 135.986648h339.221854a29.822046 29.822046 0 0 0 0-59.644092H220.825261c-38.900366 0-70.556891-34.118177-70.556891-76.138725v-721.24822c0-42.020548 31.687884-76.217122 70.556891-76.217122h582.37658c38.978762 0 70.556891 34.196573 70.556891 76.217122v471.257315a29.790687 29.790687 0 1 0 59.581374 0V150.521368c0-74.978456-58.436785-135.986648-130.279379-135.986648z m440.588587 620.320507H299.080693a44.294048 44.294048 0 0 1 0-88.572418h362.286117a44.294048 44.294048 0 0 1 0 88.572418z m-362.333155-74.116095a29.869084 29.869084 0 0 0 0 59.738168h362.286117a29.869084 29.869084 0 0 0 0-59.738168z m286.42962-95.53403H299.080693a44.309728 44.309728 0 0 1 0-88.603776h286.42962a44.309728 44.309728 0 0 1 0 88.603776z m-286.42962-74.147453a29.853405 29.853405 0 0 0 0 59.706809h286.42962a29.853405 29.853405 0 0 0 0-59.706809z m419.170651-95.534031H299.080693a44.294048 44.294048 0 0 1 0-88.572417h419.170651a44.294048 44.294048 0 0 1 0 88.572417z m-419.170651-74.116094a29.837725 29.837725 0 0 0 0 59.675451h419.170651a29.837725 29.837725 0 0 0 0-59.675451z" fill="#5C658D" p-id="7342"></path></svg>