<?xml version="1.0" standalone="no"?><!DOCTYPE svg PUBLIC "-//W3C//DTD SVG 1.1//EN" "http://www.w3.org/Graphics/SVG/1.1/DTD/svg11.dtd"><svg t="1620983412978" class="icon" viewBox="0 0 1024 1024" version="1.1" xmlns="http://www.w3.org/2000/svg" p-id="4994" xmlns:xlink="http://www.w3.org/1999/xlink" width="200" height="200"><defs><style type="text/css"></style></defs><path d="M998.4 972.8H100.96C73.44 972.8 51.2 950.56 51.2 923.04V25.6c0-14.08-11.52-25.6-25.6-25.6S0 11.52 0 25.6v896.16C0 978.24 45.76 1024 102.24 1024H998.4c14.08 0 25.6-11.52 25.6-25.6s-11.52-25.6-25.6-25.6z" p-id="4995"></path><path d="M230.4 870.4c42.4 0 76.8-34.4 76.8-76.8 0-20.8-8.16-39.52-21.6-53.28L380.16 512c1.28 0 2.56 0.16 3.84 0.16 23.36 0 44.32-10.4 58.4-26.88L614.4 537.12v0.48c0 42.4 34.4 76.8 76.8 76.8s76.8-34.4 76.8-76.8c0-19.68-7.36-37.6-19.52-51.2l140.96-281.92c2.24 0.16 4.32 0.32 6.56 0.32 42.4 0 76.8-34.4 76.8-76.8s-34.4-76.8-76.8-76.8-76.8 34.4-76.8 76.8c0 21.76 8.96 41.28 23.52 55.36l-139.2 278.56c-4-0.64-8.16-0.96-12.32-0.96-24 0-45.28 11.04-59.36 28.16L460.8 437.12V435.2c0-42.4-34.4-76.8-76.8-76.8s-76.8 34.4-76.8 76.8c0 22.72 9.92 43.2 25.6 57.28l-93.12 224.96c-3.04-0.32-6.08-0.64-9.28-0.64-42.4 0-76.8 34.4-76.8 76.8s34.4 76.8 76.8 76.8zM896 102.4c14.08 0 25.6 11.52 25.6 25.6s-11.52 25.6-25.6 25.6-25.6-11.52-25.6-25.6 11.52-25.6 25.6-25.6zM691.2 512c14.08 0 25.6 11.52 25.6 25.6s-11.52 25.6-25.6 25.6-25.6-11.52-25.6-25.6 11.52-25.6 25.6-25.6z m-307.2-102.4c14.08 0 25.6 11.52 25.6 25.6s-11.52 25.6-25.6 25.6-25.6-11.52-25.6-25.6 11.52-25.6 25.6-25.6z m-153.6 358.4c14.08 0 25.6 11.52 25.6 25.6s-11.52 25.6-25.6 25.6-25.6-11.52-25.6-25.6 11.52-25.6 25.6-25.6z" p-id="4996"></path></svg>