<?xml version="1.0" standalone="no"?><!DOCTYPE svg PUBLIC "-//W3C//DTD SVG 1.1//EN" "http://www.w3.org/Graphics/SVG/1.1/DTD/svg11.dtd"><svg t="1620984018658" class="icon" viewBox="0 0 1098 1024" version="1.1" xmlns="http://www.w3.org/2000/svg" p-id="4143" xmlns:xlink="http://www.w3.org/1999/xlink" width="214.453125" height="200"><defs><style type="text/css"></style></defs><path d="M207.179671 203.092571a34.038125 34.038125 0 1 0-4.0871 67.950008 29.446056 29.446056 0 0 0 4.0871 0h684.865389a34.038125 34.038125 0 0 0 4.10288-67.950008 29.66698 29.66698 0 0 0-4.10288 0z" fill="#999999" opacity=".5" p-id="4144"></path><path d="M1098.956465 388.19559c0-8.347783 0-10.635928-122.139587-334.069132A88.48019 88.48019 0 0 0 898.16782 0H201.056911a87.801637 87.801637 0 0 0-78.649058 54.126458C0 377.622783 0 379.926708 0 388.19559a202.950548 202.950548 0 0 0 71.358555 153.905348c0 1.104622-0.552311 2.209243-0.552311 3.329646v375.95007a102.682468 102.682468 0 0 0 102.572006 102.572005h752.720716a102.366861 102.366861 0 0 0 102.572005-102.130157V545.493705c0-1.120402-0.552311-2.225024-0.55231-3.345426A204.260313 204.260313 0 0 0 1098.956465 388.19559z m-138.866714 533.737375a34.180148 34.180148 0 0 1-34.038126 34.053905h-753.036322a33.785641 33.785641 0 0 1-34.038126-33.548936V582.135581a202.855866 202.855866 0 0 0 69.133532 12.845171 225.958238 225.958238 0 0 0 170.080165-75.319412 257.29793 257.29793 0 0 0 172.320969 75.319412 221.650213 221.650213 0 0 0 165.693239-75.319412 250.749102 250.749102 0 0 0 174.530213 75.319412 202.792745 202.792745 0 0 0 69.133531-12.845171z m-69.149312-395.959502a181.773374 181.773374 0 0 1-123.575596-52.942935 64.699265 64.699265 0 0 0-48.492888-21.745265 65.646083 65.646083 0 0 0-48.492889 21.745265 187.359603 187.359603 0 0 1-119.930344 53.021837 186.207641 186.207641 0 0 1-121.034967-53.021837 67.050531 67.050531 0 0 0-94.776533-1.720054c-0.583871 0.568091-1.167743 1.136182-1.720053 1.720054a185.402845 185.402845 0 0 1-123.575596 53.021837 138.977177 138.977177 0 0 1-139.450587-132.712395c10.635928-30.897844 74.767102-201.356737 117.389715-315.1012a20.751106 20.751106 0 0 1 14.517884-10.004716h696.921546a19.614923 19.614923 0 0 1 14.517884 10.004716c43.253826 113.744464 107.069393 284.203356 117.389715 315.1012a139.813533 139.813533 0 0 1-139.687291 132.633493z" fill="#999999" p-id="4145"></path></svg>